<?xml version="1.0" encoding="UTF-8"?>
<svg width="142px" height="88px" viewBox="0 0 142 88" version="1.1" xmlns="http://www.w3.org/2000/svg" xmlns:xlink="http://www.w3.org/1999/xlink">
    <!-- Generator: Sketch 56.3 (81716) - https://sketch.com -->
    <title>Environment Page Updates-01</title>
    <desc>Created with Sketch.</desc>
    <g id="Page-1" stroke="none" stroke-width="1" fill="none" fill-rule="evenodd">
        <g id="Group" transform="translate(-489.000000, -49.000000)">
            <g id="Environment-Page-Updates-01" transform="translate(489.000000, 49.000000)">
                <polygon id="Path" fill="#DDDDE5" fill-rule="nonzero" points="101.648148 53.1014815 130.297037 67.2955556 130.297037 64.6555556 131.193333 64.4192593 133.580741 68.5748148 131.299259 70.0333333 88.5377778 66.0407407"></polygon>
                <path d="M133.580741,68.5748148 L133.254815,68.0125926 C130.622963,68.0859259 115.328889,65.5681481 108.24,62.8711111 C103.734074,61.16 98.0385185,61.1925926 93.5733333,61.6325926 L88.5377778,66 L131.299259,70.0740741 L133.580741,68.5748148 Z" id="Path" fill="#B2B2BF" fill-rule="nonzero"></path>
                <path d="M20.9896296,83.3474074 L0.619259259,80.4303704 L4.75037037,78.3607407 L25.7237037,78.3607407 L17.9259259,55.7659259 L23.76,52.7348148 C23.76,52.7348148 34.3525926,63.3274074 36.797037,65.6088889 C38.427158,67.0645362 40.3833671,68.1069162 42.5007407,68.6481481 C42.5007407,68.6481481 103.848148,36.3325926 116.355556,29.7733333 C124.503704,25.5118519 129.392593,26.5140741 131.837037,27.7688889 L128.105185,27.9155556 C127.901945,27.9220883 127.699906,27.9493908 127.502222,27.997037 L125.139259,28.6081481 L124.943704,28.6651852 L124.063704,28.9585185 C123.206645,29.247137 122.549716,29.9437876 122.311852,30.8162963 L122.222222,31.1340741 C122.175548,31.3093572 122.229759,31.4960738 122.363046,31.6191076 C122.496333,31.7421413 122.686783,31.7812656 122.857778,31.7207407 L128.740741,29.5859259 C128.986922,29.4951847 129.244868,29.4403025 129.506667,29.422963 L133.743704,29.1622222 C133.743704,29.1622222 139.7,28.5592593 141.036296,32.6903704 C142.372593,36.8214815 132.52963,43.6251852 132.52963,43.6251852 C132.52963,43.6251852 68.1592593,76.9022222 62.6837037,79.3385185 C57.2081481,81.7748148 25.2592593,87.3562963 25.2592593,87.3562963 C25.2592593,87.3562963 20.6392593,88.0814815 19.7918519,86.3785185 C18.9444444,84.6755556 20.9896296,83.3474074 20.9896296,83.3474074 Z" id="Path" fill="#FFFFFF" fill-rule="nonzero"></path>
                <polyline id="Path" fill="#DDDDE5" fill-rule="nonzero" points="65.5518519 64.7288889 42.4925926 68.6481481 57.6644444 60.8096296 66.1792593 63.4088889"></polyline>
                <path d="M128.740741,29.5859259 L122.84963,31.7207407 C122.678634,31.7812656 122.488184,31.7421413 122.354898,31.6191076 C122.221611,31.4960738 122.1674,31.3093572 122.214074,31.1340741 L122.303704,30.8162963 C122.541567,29.9437876 123.198497,29.247137 124.055556,28.9585185 L124.935556,28.6651852 L125.131111,28.6081481 L127.494074,27.997037 C127.691758,27.9493908 127.893797,27.9220883 128.097037,27.9155556 L131.828889,27.7688889 C132.547932,28.1107578 133.197216,28.5832159 133.743704,29.1622222 L129.506667,29.422963 C129.244868,29.4403025 128.986922,29.4951847 128.740741,29.5859259 L128.740741,29.5859259 Z" id="Path" fill="#8F90A0" fill-rule="nonzero"></path>
                <path d="M87.5274074,52.0096296 L11.1792593,48.7503704 C9.31720086,48.8287713 7.48087976,49.214206 5.74444444,49.8911111 L2.27333333,45.817037 L0.578518519,46.3059259 L3.21037037,51.5288889 L52.8162963,59.4814815 L65.0385185,63.5555556 C65.0385185,63.5555556 85.0748148,61.0051852 87.5681481,54.2340741 C87.5274074,54.282963 88.5622222,52.6125926 87.5274074,52.0096296 Z" id="Path" fill="#F1F2F8" fill-rule="nonzero"></path>
                <path d="M77.9614815,60.6792593 C77.8962963,60.6792593 60.1659259,54.6577778 46.0044444,55.602963 C31.842963,56.5481481 9.54962963,48.8888889 9.54962963,48.8888889 L9.54962963,48.8888889 C8.24190738,49.0455407 6.96169219,49.3799866 5.74444444,49.882963 L2.27333333,45.8088889 L0.578518519,46.2977778 L3.21037037,51.5207407 L52.8162963,59.4814815 L65.0385185,63.5555556 C69.4196802,62.9635126 73.7427984,62.0013053 77.9614815,60.6792593 L77.9614815,60.6792593 Z" id="Path" fill="#B2B2BF" fill-rule="nonzero"></path>
                <path d="M46.2244444,79.3059259 C55.7903704,77.0244444 55.88,76.0466667 55.88,76.0466667 C55.88,76.0466667 122.205926,38.8748148 128.585926,34.4911111 C132.261489,31.916046 137.018617,31.4582729 141.117778,33.2851852 L141.117778,33.2851852 C141.451852,37.4407407 132.505185,43.6333333 132.505185,43.6333333 C132.505185,43.6333333 68.1348148,76.9103704 62.6592593,79.3466667 C57.1837037,81.782963 25.2592593,87.3562963 25.2592593,87.3562963 C25.2592593,87.3562963 20.6392593,88.0814815 19.7918519,86.3785185 C19.5050152,85.8355543 19.5050152,85.1859272 19.7918519,84.642963 L19.7918519,84.642963 C19.7918519,84.642963 36.6666667,81.5792593 46.2244444,79.3059259 Z" id="Path" fill="#8F90A0" fill-rule="nonzero"></path>
                <path d="M76.9511111,60.2962963 C74.9874074,62.3414815 68.802963,64.077037 66.3585185,64.6637037 C65.705223,64.8287253 65.0123728,64.6943362 64.4681481,64.297037 L62.9444444,63.2051852 C61.8364107,62.4236081 61.2181937,61.1191702 61.3148148,59.7666667 L61.4125926,58.4955556 C61.4484152,57.9542074 61.680134,57.4444261 62.0644444,57.0614815 C64.9776479,54.3420202 68.374163,52.1919073 72.0785185,50.7222222 C72.5780528,50.5176941 73.1410324,50.5354724 73.6266667,50.7711111 L74.5148148,51.1866667 C77.0710132,52.397459 78.4102926,55.2502607 77.7088889,57.9903704 L77.4074074,59.4814815 C77.3233451,59.7859511 77.1667822,60.0655276 76.9511111,60.2962963 L76.9511111,60.2962963 Z" id="Path" fill="#00A698" fill-rule="nonzero"></path>
                <path d="M116.363704,66 C114.522222,67.9311111 108.688148,69.5607407 106.422963,70.0740741 C105.806705,70.2257367 105.154945,70.1007417 104.638519,69.7318519 L103.212593,68.697037 C102.174039,67.9502074 101.604624,66.7123484 101.713333,65.4377778 L101.802963,64.24 C101.841132,63.7312651 102.057532,63.2522989 102.414074,62.8874074 C105.171232,60.3716561 108.370328,58.3881058 111.84963,57.037037 C112.321274,56.848807 112.850167,56.8665353 113.308148,57.0859259 L114.122963,57.477037 C116.530777,58.6190716 117.788879,61.309631 117.121481,63.8896296 L116.771111,65.2666667 C116.693812,65.5393137 116.554359,65.7903291 116.363704,66 Z" id="Path" fill="#00A698" fill-rule="nonzero"></path>
                <path d="M116.363704,66 C114.522222,67.9311111 108.688148,69.5607407 106.422963,70.0740741 C105.806705,70.2257367 105.154945,70.1007417 104.638519,69.7318519 L103.212593,68.697037 C102.174039,67.9502074 101.604624,66.7123484 101.713333,65.4377778 L101.802963,64.24 C101.841132,63.7312651 102.057532,63.2522989 102.414074,62.8874074 C105.171232,60.3716561 108.370328,58.3881058 111.84963,57.037037 C112.321274,56.848807 112.850167,56.8665353 113.308148,57.0859259 L114.122963,57.477037 C116.530777,58.6190716 117.788879,61.309631 117.121481,63.8896296 L116.771111,65.2666667 C116.693812,65.5393137 116.554359,65.7903291 116.363704,66 Z" id="Path" fill="#8F90A0" fill-rule="nonzero"></path>
                <path d="M76.9511111,60.2962963 C74.9874074,62.3414815 68.802963,64.077037 66.3585185,64.6637037 C65.705223,64.8287253 65.0123728,64.6943362 64.4681481,64.297037 L62.9444444,63.2051852 C61.8364107,62.4236081 61.2181937,61.1191702 61.3148148,59.7666667 L61.4125926,58.4955556 C61.4484152,57.9542074 61.680134,57.4444261 62.0644444,57.0614815 C64.9776479,54.3420202 68.374163,52.1919073 72.0785185,50.7222222 C72.5780528,50.5176941 73.1410324,50.5354724 73.6266667,50.7711111 L74.5148148,51.1866667 C77.0710132,52.397459 78.4102926,55.2502607 77.7088889,57.9903704 L77.4074074,59.4814815 C77.3233451,59.7859511 77.1667822,60.0655276 76.9511111,60.2962963 L76.9511111,60.2962963 Z" id="Path" fill="#8F90A0" fill-rule="nonzero"></path>
                <ellipse id="Oval" fill="#68697F" fill-rule="nonzero" transform="translate(74.599972, 55.005316) rotate(-32.040000) translate(-74.599972, -55.005316) " cx="74.5999716" cy="55.0053164" rx="2.22444444" ry="3.56074074"></ellipse>
                <ellipse id="Oval" fill="#68697F" fill-rule="nonzero" transform="translate(114.273541, 61.235615) rotate(-31.944753) translate(-114.273541, -61.235615) " cx="114.273541" cy="61.2356148" rx="1.8772573" ry="3.00361167"></ellipse>
                <path d="M0.578518519,80.4303704 C2.27803562,79.9349429 4.00949658,79.5565261 5.76074074,79.2977778 C6.87703704,79.2977778 22.717037,81.237037 23.2059259,81.1718519 C23.6948148,81.1066667 20.9896296,83.3474074 20.9896296,83.3474074" id="Path" fill="#DDDDE5" fill-rule="nonzero"></path>
                <polygon id="Path" fill="#DDDDE5" fill-rule="nonzero" points="18.6022222 57.6562963 29.6103704 58.5444444 26.3592593 55 20.7940741 54.2585185 17.9503704 55.7659259"></polygon>
                <path d="M88,49.9237037 L89.4259259,49.1088889" id="Path" stroke="#B2B2BF" stroke-width="1.62962963" stroke-linecap="round" stroke-linejoin="round"></path>
                <path d="M92.3022222,47.4955556 C98.2911111,44.1385185 108.948889,38.1659259 114.098519,35.3222222" id="Path" stroke="#B2B2BF" stroke-width="1.62962963" stroke-linecap="round" stroke-linejoin="round" stroke-dasharray="3.324444382279007"></path>
                <path d="M115.557037,34.5237037 C116.371852,34.0918519 116.844444,33.822963 116.991111,33.7496296" id="Path" stroke="#B2B2BF" stroke-width="1.62962963" stroke-linecap="round" stroke-linejoin="round" stroke-dasharray="3.324444382279007"></path>
                <path d="M60.3044444,64.4844444 L48.6851852,70.1962963" id="Path" stroke="#B2B2BF" stroke-width="1.62962963" stroke-linecap="round" stroke-linejoin="round" stroke-dasharray="3.259259259259259"></path>
                <path d="M7.52074074,12.0592118 L12.7681481,12.0592118 C13.1596567,12.0592118 13.477037,12.3766396 13.477037,12.7681481 L13.477037,31.1666667 L6.80365626,31.1666667 L6.80365626,12.7762963 C6.80149726,12.5854584 6.87633328,12.4017924 7.01128508,12.2668406 C7.14623687,12.1318888 7.32990284,12.0570528 7.52074074,12.0592118 Z" id="Path" fill="#FFC572" fill-rule="nonzero"></path>
                <path d="M18.7407407,6.74666667 L23.6296296,6.74666667 C24.0211382,6.74666667 24.3385185,7.06404703 24.3385185,7.45555556 L24.3385185,31.1666667 L18.04,31.1666667 L18.04,7.45555556 C18.04,7.06720713 18.352418,6.75113044 18.7407407,6.74666667 Z" id="Path" fill="#A7A7B4" fill-rule="nonzero"></path>
                <path d="M29.5696296,0.497037037 L34.817037,0.497037037 C35.2085456,0.497037037 35.5259259,0.814417403 35.5259259,1.20592593 L35.5259259,31.1666667 L28.8607407,31.1666667 L28.8607407,1.20592593 C28.8607407,0.814417403 29.1781211,0.497037037 29.5696296,0.497037037 Z" id="Path" fill="#9DC0F2" fill-rule="nonzero"></path>
                <path d="M40.7407407,15.8318519 L45.7762963,15.8318519 C46.1678048,15.8318519 46.4851852,16.1492322 46.4851852,16.5407407 L46.4851852,31.1666667 L39.9911101,31.1666667 L39.9911101,16.5407407 C39.9907883,16.3454553 40.0710408,16.1586864 40.2129306,16.0245081 C40.3548203,15.8903298 40.5457778,15.8206283 40.7407407,15.8318519 L40.7407407,15.8318519 Z" id="Path" fill="#FF7B59" fill-rule="nonzero"></path>
                <path d="M2.15925926,30.8406856 L49.6385185,30.8406856 C50.500856,30.8357298 51.3300332,31.1726746 51.9444444,31.7777778 L67.7925926,47.6422222" id="Path" stroke="#FFFFFF" stroke-width="0.96962963" stroke-linecap="round" stroke-linejoin="round"></path>
                <circle id="Oval" fill="#FFFFFF" fill-rule="nonzero" cx="67.7925926" cy="47.6422222" r="1.7762963"></circle>
            </g>
        </g>
    </g>
</svg>